<svg xmlns="http://www.w3.org/2000/svg" xmlns:xlink="http://www.w3.org/1999/xlink" width="150" height="48" viewBox="0 0 150 48">
<style type="text/css">
	.st0{fill:#3DBA62;}
	.st1{filter:url(#Adobe_OpacityMaskFilter);}
	.st2{fill:#FFFFFF;}
	.st3{mask:url(#b);}
	.st4{fill:#FEFEFE;}
</style>
<g>
	<path class="st0" d="M-0.1,0h48v48h-48V0z"/>
	<g transform="translate(16 16)">
		<defs>
			<filter id="Adobe_OpacityMaskFilter" filterUnits="userSpaceOnUse" x="-17.1" y="-17" width="50" height="50">
				<feColorMatrix  type="matrix" values="1 0 0 0 0  0 1 0 0 0  0 0 1 0 0  0 0 0 1 0"/>
			</filter>
		</defs>
		<mask maskUnits="userSpaceOnUse" x="-17.1" y="-17" width="50" height="50" id="b">
			<g class="st1">
				<path id="a" class="st2" d="M5.9,8c-1.1,0-2,0.9-2,2s0.9,2,2,2s2-0.9,2-2S7,8,5.9,8z M1.9,4c-1.1,0-2,0.9-2,2s0.9,2,2,2
					s2-0.9,2-2S3,4,1.9,4z M1.9,12c-1.1,0-2,0.9-2,2s0.9,2,2,2s2-0.9,2-2S3,12,1.9,12z M13.9,4c1.1,0,2-0.9,2-2s-0.9-2-2-2
					s-2,0.9-2,2S12.8,4,13.9,4z M9.9,12c-1.1,0-2,0.9-2,2s0.9,2,2,2s2-0.9,2-2S11,12,9.9,12z M13.9,8c-1.1,0-2,0.9-2,2s0.9,2,2,2
					s2-0.9,2-2S15,8,13.9,8z M9.9,4c-1.1,0-2,0.9-2,2s0.9,2,2,2s2-0.9,2-2S11,4,9.9,4z M5.9,0c-1.1,0-2,0.9-2,2s0.9,2,2,2s2-0.9,2-2
					S7,0,5.9,0z"/>
			</g>
		</mask>
		<g class="st3">
			<g transform="translate(-17 -17)">
				<path id="c" class="st2" d="M-17.1-17h50v50h-50V-17z"/>
			</g>
		</g>
	</g>
	<path class="st4" d="M66.7,33.1l-3.4-6.3H61v6.3h-3.3V16.5h5.8c3.5,0,6.3,1.2,6.3,5c0,2.5-1.3,4.1-3.2,4.8l3.9,6.8H66.7z M61,24.2
		h2.2c2.1,0,3.3-0.9,3.3-2.7c0-1.8-1.2-2.4-3.3-2.4H61V24.2z M71.7,26.8c0-4.1,2.9-6.6,5.9-6.6c3.5,0,5.3,2.5,5.3,6
		c0,0.6-0.1,1.2-0.2,1.5h-7.8c0.3,2.1,1.6,3.2,3.5,3.2c1,0,1.9-0.3,2.8-0.9l1.1,2c-1.2,0.9-2.8,1.4-4.4,1.4
		C74.5,33.4,71.7,31,71.7,26.8z M80,25.6c0-1.7-0.8-2.8-2.4-2.8c-1.3,0-2.5,0.9-2.7,2.8H80z M87.8,26.5l-3.7-6h3.6l1.3,2.3
		c0.4,0.7,0.7,1.4,1.1,2.1h0.1c0.3-0.7,0.6-1.4,0.9-2.1l1.1-2.3h3.4l-3.7,6.4l3.9,6.2h-3.6l-1.4-2.3c-0.4-0.7-0.8-1.5-1.2-2.2h-0.1
		c-0.4,0.7-0.7,1.5-1.1,2.2l-1.2,2.3h-3.4L87.8,26.5z M96.5,26.8c0-4.1,2.9-6.6,5.9-6.6c3.5,0,5.3,2.5,5.3,6c0,0.6-0.1,1.2-0.2,1.5
		h-7.8c0.3,2.1,1.6,3.2,3.5,3.2c1,0,1.9-0.3,2.8-0.9l1.1,2c-1.2,0.9-2.8,1.4-4.4,1.4C99.2,33.4,96.5,31,96.5,26.8z M104.8,25.6
		c0-1.7-0.8-2.8-2.4-2.8c-1.3,0-2.5,0.9-2.7,2.8H104.8z M110.4,20.5h2.7l0.2,2.2h0.1c0.9-1.6,2.3-2.5,3.6-2.5c0.7,0,1.1,0.1,1.5,0.3
		l-0.6,2.9c-0.4-0.1-0.8-0.2-1.3-0.2c-1,0-2.2,0.7-2.9,2.5v7.5h-3.3V20.5z M119.1,35.4c0-1.1,0.7-2,1.8-2.6v-0.1
		c-0.7-0.4-1.1-1.1-1.1-2.1c0-0.9,0.7-1.8,1.4-2.4v-0.1c-0.9-0.6-1.7-1.8-1.7-3.3c0-3,2.4-4.6,5.1-4.6c0.7,0,1.4,0.1,1.9,0.3h4.6
		v2.4h-2.2c0.3,0.4,0.6,1.1,0.6,1.9c0,2.8-2.2,4.3-4.9,4.3c-0.5,0-1.1-0.1-1.6-0.3c-0.4,0.3-0.5,0.6-0.5,1.1c0,0.7,0.5,1,2,1h2.1
		c3,0,4.7,0.9,4.7,3.2c0,2.5-2.6,4.5-6.9,4.5C121.4,38.6,119.1,37.6,119.1,35.4z M128.1,34.7c0-0.9-0.7-1.1-2.1-1.1h-1.5
		c-0.8,0-1.3-0.1-1.8-0.2c-0.6,0.5-0.8,0.9-0.8,1.5c0,1.1,1.2,1.7,3,1.7C126.7,36.5,128.1,35.7,128.1,34.7z M126.5,24.8
		c0-1.5-0.8-2.3-2-2.3c-1.1,0-2,0.8-2,2.3c0,1.5,0.9,2.3,2,2.3C125.7,27.1,126.5,26.3,126.5,24.8z M132.9,37.9l0.6-2.5
		c0.2,0.1,0.6,0.2,0.9,0.2c1.3,0,2-0.8,2.4-1.9l0.2-0.7l-4.9-12.4h3.3l2,5.9c0.4,1.1,0.7,2.3,1.1,3.6h0.1c0.3-1.2,0.6-2.4,0.9-3.6
		l1.7-5.9h3.2l-4.5,13c-1.1,3-2.5,4.7-5.3,4.7C133.9,38.2,133.4,38.1,132.9,37.9z"/>
</g>
</svg>
